<svg width="100" height="100" viewBox="0 0 100 100" xmlns="http://www.w3.org/2000/svg">
  <rect x="0" y="0" width="100" height="100" rx="12" fill="#173f4c"/>
  <g transform="translate(50,50)" fill="none" stroke="#fff" stroke-width="1.8" stroke-linecap="round" stroke-linejoin="round">
    <circle cx="0" cy="0" r="30"/>
    <circle cx="0" cy="0" r="11"/>
    <line x1="0"   y1="-30" x2="0"   y2="-12"/>
    <line x1="12"  y1="-27" x2="5"   y2="-11"/>
    <line x1="21"  y1="-21" x2="9"   y2="-8"/>
    <line x1="27"  y1="-12" x2="11"  y2="-5"/>
    <line x1="30"  y1="0"   x2="12"  y2="0"/>
    <line x1="27"  y1="12"  x2="11"  y2="5"/>
    <line x1="21"  y1="21"  x2="9"   y2="8"/>
    <line x1="12"  y1="27"  x2="5"   y2="11"/>
    <line x1="0"   y1="30"  x2="0"   y2="12"/>
    <line x1="-12" y1="27"  x2="-5"  y2="11"/>
    <line x1="-21" y1="21"  x2="-9"  y2="8"/>
    <line x1="-27" y1="12"  x2="-11" y2="5"/>
    <line x1="-30" y1="0"   x2="-12" y2="0"/>
    <line x1="-27" y1="-12" x2="-11" y2="-5"/>
    <line x1="-21" y1="-21" x2="-9"  y2="-8"/>
    <line x1="-12" y1="-27" x2="-5"  y2="-11"/>
  </g>
</svg>
