<?xml version="1.0" encoding="UTF-8"?>
<svg width="84" height="84" viewBox="0 0 84 84" xmlns="http://www.w3.org/2000/svg">
  <rect width="84" height="84" rx="10" fill="#173f4c"/>
  <g transform="translate(42, 42)" fill="none" stroke="#ffffff" stroke-width="2.2" stroke-linecap="round" stroke-linejoin="round">
    <g >
      <!-- Rectangular panel filter frame -->
      <rect x="-18" y="-20" width="36" height="40" rx="3" stroke-width="2.2"/>
      <!-- Inner frame -->
      <rect x="-14" y="-16" width="28" height="32" rx="2" stroke-width="1.8"/>
      <!-- Pleated media - zigzag pattern -->
      <path d="M-10 -14 L-6 -10 L-10 -6 L-6 -2 L-10 2 L-6 6 L-10 10 L-6 14 L-10 18" stroke-width="1.8"/>
      <path d="M-2 -14 L2 -10 L-2 -6 L2 -2 L-2 2 L2 6 L-2 10 L2 14 L-2 18" stroke-width="1.8"/>
      <path d="M6 -14 L10 -10 L6 -6 L10 -2 L6 2 L10 6 L6 10 L10 14 L6 18" stroke-width="1.8"/>
      <!-- Air flow direction arrows -->
      <path d="M20 -10 L26 -10 M23 -13 L26 -10 L23 -7" stroke-width="2"/>
      <path d="M20 0 L26 0 M23 -3 L26 0 L23 3" stroke-width="2"/>
      <path d="M20 10 L26 10 M23 7 L26 10 L23 13" stroke-width="2"/>
    </g>
  </g>
</svg>