<svg width="100" height="100" viewBox="0 0 100 100" xmlns="http://www.w3.org/2000/svg">
  <rect x="0" y="0" width="100" height="100" rx="12" fill="#173f4c"/>
  <g transform="translate(50,50)" fill="none" stroke="#fff" stroke-width="1.8" stroke-linecap="round" stroke-linejoin="round">
    <rect x="-14" y="-28" width="28" height="52" rx="4"/>
    <rect x="-8"  y="-36" width="16" height="10" rx="2"/>
    <rect x="-6"  y="24"  width="12" height="8"  rx="2"/>
    <rect x="-24" y="-22" width="10" height="8" rx="2"/>
    <rect x="-24" y="-4"  width="10" height="8" rx="2"/>
    <rect x="-24" y="14"  width="10" height="8" rx="2"/>
    <rect x="14"  y="-22" width="10" height="8" rx="2"/>
    <rect x="14"  y="-4"  width="10" height="8" rx="2"/>
    <rect x="14"  y="14"  width="10" height="8" rx="2"/>
    <circle cx="0" cy="-12" r="6"/>
    <line x1="0" y1="-16" x2="0" y2="-12"/>
    <line x1="0" y1="-12" x2="4" y2="-10"/>
  </g>
</svg>
