<svg width="100" height="100" viewBox="0 0 100 100" xmlns="http://www.w3.org/2000/svg">
  <rect x="0" y="0" width="100" height="100" rx="12" fill="#173f4c"/>
  <g transform="translate(50,50)" fill="none" stroke="#fff" stroke-width="1.8" stroke-linecap="round" stroke-linejoin="round">
    <rect x="-22" y="-30" width="44" height="18" rx="3"/>
    <rect x="-34" y="-26" width="12" height="9" rx="2"/>
    <rect x="22"  y="-26" width="12" height="9" rx="2"/>
    <line x1="-12" y1="-26" x2="12" y2="-26"/>
    <line x1="-12" y1="-20" x2="12" y2="-20"/>
    <path d="M-22,-12 L-23,16 Q-23,28 0,30 Q23,28 23,16 L22,-12 Z"/>
    <path d="M-13,18 Q0,24 13,18" stroke-dasharray="2.5,2" stroke-width="1.4"/>
    <line x1="0" y1="30" x2="0" y2="37"/>
    <line x1="-6" y1="37" x2="6" y2="37"/>
  </g>
</svg>
