<svg width="100" height="100" viewBox="0 0 100 100" xmlns="http://www.w3.org/2000/svg">
  <rect x="0" y="0" width="100" height="100" rx="12" fill="#173f4c"/>
  <g transform="translate(50,50)" fill="none" stroke="#fff" stroke-width="1.8" stroke-linecap="round" stroke-linejoin="round">
    <rect x="-28" y="-36" width="56" height="13" rx="3"/>
    <circle cx="0" cy="-30" r="4"/>
    <line x1="-4"  y1="-30" x2="-16" y2="-30"/>
    <line x1="4"   y1="-30" x2="16"  y2="-30"/>
    <rect x="-28" y="-23" width="22" height="46" rx="4"/>
    <rect x="6"   y="-23" width="22" height="46" rx="4"/>
    <line x1="-24" y1="-10" x2="-10" y2="-10"/>
    <line x1="-24" y1="0"   x2="-10" y2="0"/>
    <line x1="-24" y1="10"  x2="-10" y2="10"/>
    <line x1="10"  y1="-10" x2="24"  y2="-10"/>
    <line x1="10"  y1="0"   x2="24"  y2="0"/>
    <line x1="10"  y1="10"  x2="24"  y2="10"/>
    <rect x="-28" y="23" width="56" height="6" rx="2"/>
    <line x1="-17" y1="29" x2="-17" y2="36"/>
    <line x1="-22" y1="36" x2="-12" y2="36"/>
    <line x1="17"  y1="29" x2="17"  y2="36"/>
    <line x1="12"  y1="36" x2="22"  y2="36"/>
  </g>
</svg>
