<?xml version="1.0" encoding="UTF-8"?>
<svg width="84" height="84" viewBox="0 0 84 84" xmlns="http://www.w3.org/2000/svg">
  <rect width="84" height="84" rx="10" fill="#173f4c"/>
  <g transform="translate(42, 42)" fill="none" stroke="#ffffff" stroke-width="2.2" stroke-linecap="round" stroke-linejoin="round">
    <g >
      <!-- High pressure housing -->
      <rect x="-14" y="-22" width="28" height="44" rx="4" stroke-width="2.2"/>
      <!-- Heavy duty inlet left -->
      <rect x="-24" y="-16" width="12" height="8" rx="2" stroke-width="2.2"/>
      <!-- Outlet right -->
      <rect x="12" y="-16" width="12" height="8" rx="2" stroke-width="2.2"/>
      <!-- Pressure indicator window -->
      <rect x="-8" y="-4" width="16" height="12" rx="2" stroke-width="2.2"/>
      <!-- Pressure bar inside -->
      <line x1="-6" y1="2" x2="6" y2="2" stroke-width="2"/>
      <line x1="-4" y1="0" x2="-4" y2="4" stroke-width="1.5"/>
      <line x1="0" y1="-1" x2="0" y2="5" stroke-width="1.5"/>
      <line x1="4" y1="-2" x2="4" y2="6" stroke-width="1.5"/>
      <!-- HP badge -->
      <rect x="-10" y="14" width="20" height="8" rx="2" stroke-width="2"/>
      <path d="M-6 16 L-6 22 M-6 19 L-3 19 M-3 16 L-3 22" stroke-width="1.8"/>
      <path d="M1 16 L1 22 M1 19 L4 16 L4 22" stroke-width="1.8"/>
      <!-- Mounting bracket indication -->
      <line x1="-18" y1="22" x2="-14" y2="22" stroke-width="2"/>
    </g>
  </g>
</svg>