<?xml version="1.0" encoding="UTF-8"?>
<svg width="84" height="84" viewBox="0 0 84 84" xmlns="http://www.w3.org/2000/svg">
  <rect width="84" height="84" rx="10" fill="#173f4c"/>
  <g transform="translate(42, 42)" fill="none" stroke="#ffffff" stroke-width="2.2" stroke-linecap="round" stroke-linejoin="round">
    <g >
      <!-- Main filter housing - vertical cylinder -->
      <rect x="-14" y="-22" width="28" height="44" rx="4" stroke-width="2.2"/>
      <!-- Top cap with ports -->
      <rect x="-16" y="-26" width="32" height="6" rx="2" stroke-width="2.2"/>
      <!-- Bottom cap with drain -->
      <rect x="-16" y="20" width="32" height="6" rx="2" stroke-width="2.2"/>
      <!-- Inlet port left -->
      <rect x="-24" y="-14" width="10" height="6" rx="1.5" stroke-width="2.2"/>
      <!-- Outlet port right -->
      <rect x="14" y="-14" width="10" height="6" rx="1.5" stroke-width="2.2"/>
      <!-- Hydraulic symbol - arrow through center -->
      <path d="M-6 -6 L6 -6 M0 -10 L6 -6 L0 -2" stroke-width="2.2"/>
      <path d="M-6 6 L6 6 M0 2 L6 6 L0 10" stroke-width="2.2"/>
      <!-- Pressure lines on body -->
      <line x1="-8" y1="-18" x2="-8" y2="18" stroke-width="1.5" opacity="0.6"/>
      <line x1="0" y1="-18" x2="0" y2="18" stroke-width="1.5" opacity="0.6"/>
      <line x1="8" y1="-18" x2="8" y2="18" stroke-width="1.5" opacity="0.6"/>
    </g>
  </g>
</svg>