<svg width="100" height="100" viewBox="0 0 100 100" xmlns="http://www.w3.org/2000/svg">
  <rect x="0" y="0" width="100" height="100" rx="12" fill="#173f4c"/>
  <g transform="translate(50,50)" fill="none" stroke="#fff" stroke-width="1.8" stroke-linecap="round" stroke-linejoin="round">
    <rect x="-36" y="-9" width="20" height="18" rx="3"/>
    <line x1="-36" y1="-9" x2="-36" y2="9"/>
    <rect x="16"  y="-9" width="20" height="18" rx="3"/>
    <line x1="36" y1="-9" x2="36" y2="9"/>
    <rect x="-16" y="-13" width="32" height="26" rx="3"/>
    <path d="M-11,13 L-13,34 L13,34 L11,13"/>
    <line x1="-5" y1="18" x2="-5" y2="30"/>
    <line x1="0"  y1="17" x2="0"  y2="31"/>
    <line x1="5"  y1="18" x2="5"  y2="30"/>
    <rect x="-15" y="34" width="30" height="6" rx="2"/>
    <circle cx="-9" cy="37" r="1.8" fill="#fff" stroke="none"/>
    <circle cx="9"  cy="37" r="1.8" fill="#fff" stroke="none"/>
  </g>
</svg>
