<?xml version="1.0" encoding="UTF-8"?>
<svg width="84" height="84" viewBox="0 0 84 84" xmlns="http://www.w3.org/2000/svg">
  <rect width="84" height="84" rx="10" fill="#173f4c"/>
  <g transform="translate(42, 42)" fill="none" stroke="#ffffff" stroke-width="2.2" stroke-linecap="round" stroke-linejoin="round">
    <g >
      <!-- Spin-on filter canister -->
      <rect x="-14" y="-20" width="28" height="40" rx="5" stroke-width="2.2"/>
      <!-- Top nut (hexagonal suggestion) -->
      <rect x="-8" y="-26" width="16" height="8" rx="2" stroke-width="2.2"/>
      <line x1="-6" y1="-26" x2="-6" y2="-18" stroke-width="1.5"/>
      <line x1="6" y1="-26" x2="6" y2="-18" stroke-width="1.5"/>
      <!-- Bottom plate with holes -->
      <rect x="-16" y="18" width="32" height="5" rx="2" stroke-width="2.2"/>
      <circle cx="-8" cy="20.5" r="1.5" fill="white" stroke="none"/>
      <circle cx="0" cy="20.5" r="1.5" fill="white" stroke="none"/>
      <circle cx="8" cy="20.5" r="1.5" fill="white" stroke="none"/>
      <!-- SF logo stylized on body -->
      <path d="M-6 -6 L-2 -6 M-6 -6 L-6 -2 M-6 -4 L-3 -4" stroke-width="2.5"/>
      <path d="M2 -6 L6 -6 M2 -6 L2 -2 M2 -4 L5 -4 M2 -2 L6 -2" stroke-width="2.5"/>
      <!-- Anti-drain back valve symbol -->
      <path d="M-4 8 L4 8 L0 14 Z" stroke-width="2"/>
    </g>
  </g>
</svg>